<svg width="40" height="40" viewBox="0 0 40 40" fill="none" xmlns="http://www.w3.org/2000/svg">
<path d="M20.0007 3.33398C10.9657 3.33398 3.33398 10.9657 3.33398 20.0007C3.33398 29.0357 10.9657 36.6673 20.0007 36.6673C29.0357 36.6673 36.6673 29.0357 36.6673 20.0007C36.6673 10.9657 29.0357 3.33398 20.0007 3.33398ZM20.0007 11.6673C22.879 11.6673 25.0007 13.7873 25.0007 16.6673C25.0007 19.5473 22.879 21.6673 20.0007 21.6673C17.124 21.6673 15.0007 19.5473 15.0007 16.6673C15.0007 13.7873 17.124 11.6673 20.0007 11.6673ZM11.4907 27.954C12.9857 25.754 15.479 24.2873 18.334 24.2873H21.6673C24.524 24.2873 27.0157 25.754 28.5107 27.954C26.3807 30.234 23.359 31.6673 20.0007 31.6673C16.6423 31.6673 13.6207 30.234 11.4907 27.954Z" fill="white"/>
</svg>
