<svg width="24" height="24" viewBox="0 0 24 24" fill="none" xmlns="http://www.w3.org/2000/svg">
<path d="M11.001 10H13.001V15H11.001V10ZM11 16H13V18H11V16Z" fill="#A41A2D"/>
<path d="M13.7679 4.19994C13.4199 3.54494 12.7419 3.13794 11.9999 3.13794C11.2579 3.13794 10.5799 3.54494 10.2319 4.20094L2.89395 18.0639C2.73112 18.3684 2.65046 18.71 2.65993 19.0551C2.6694 19.4002 2.76867 19.7369 2.94795 20.0319C3.12465 20.3283 3.37559 20.5735 3.676 20.7432C3.97641 20.913 4.3159 21.0015 4.66095 20.9999H19.3389C20.0469 20.9999 20.6879 20.6379 21.0529 20.0319C21.2319 19.7368 21.331 19.4001 21.3405 19.0551C21.35 18.71 21.2695 18.3685 21.1069 18.0639L13.7679 4.19994ZM4.66095 18.9999L11.9999 5.13694L19.3439 18.9999H4.66095Z" fill="#A41A2D"/>
</svg>
