<svg width="24" height="24" viewBox="0 0 24 24" fill="none" xmlns="http://www.w3.org/2000/svg">
<path fill-rule="evenodd" clip-rule="evenodd" d="M19.001 8.5C19.3163 8.50023 19.6186 8.62558 19.8416 8.84854C20.0647 9.07171 20.1901 9.37439 20.1901 9.69V10.5H17.0001C16.7349 10.5 16.4806 10.6054 16.293 10.7929C16.1055 10.9804 16.0001 11.2348 16.0001 11.5V14.5C16.0001 14.7652 16.1055 15.0196 16.293 15.2071C16.4806 15.3946 16.7349 15.5 17.0001 15.5H21.0001C21.2653 15.5 21.5197 15.3946 21.7072 15.2071C21.8948 15.0196 22.0001 14.7652 22.0001 14.5V11.5C22.0001 11.2348 21.8948 10.9804 21.7072 10.7929C21.5651 10.6508 21.3846 10.5559 21.1901 10.5182V9.69C21.1901 9.10918 20.9594 8.55214 20.5487 8.14144C20.138 7.73073 19.5809 7.5 19.0001 7.5V8L18.9984 7.5C18.4899 7.50175 17.9975 7.67882 17.6043 8.00137C17.2111 8.32392 16.9412 8.77219 16.8401 9.27059C16.7852 9.54122 16.9601 9.80511 17.2307 9.86002C17.5013 9.91492 17.7652 9.74004 17.8201 9.46941C17.8755 9.19653 18.0233 8.9511 18.2385 8.7745C18.4536 8.59809 18.7228 8.50115 19.001 8.5ZM17.0001 11.5H21.0001V14.5H17.0001V11.5Z" fill="#242629"/>
<path d="M4.85512 8.01638C5.05042 8.21161 5.05047 8.5282 4.85524 8.72349C3.98737 9.59164 3.5 10.7683 3.5 11.995C3.5 13.2217 3.98737 14.3983 4.85524 15.2665C5.05047 15.4618 5.05042 15.7784 4.85512 15.9736C4.65983 16.1688 4.34325 16.1688 4.14802 15.9735C3.09279 14.9179 2.5 13.487 2.5 11.995C2.5 10.503 3.09279 9.07207 4.14802 8.0165C4.34325 7.82121 4.65983 7.82115 4.85512 8.01638Z" fill="#242629"/>
<path fill-rule="evenodd" clip-rule="evenodd" d="M10.31 9.37559C10.8034 9.04594 11.3834 8.87 11.9767 8.87C12.7724 8.87 13.5355 9.18607 14.0981 9.74868C14.6607 10.3113 14.9767 11.0743 14.9767 11.87C14.9767 12.4633 14.8008 13.0434 14.4712 13.5367C14.1415 14.0301 13.673 14.4146 13.1248 14.6416C12.5766 14.8687 11.9734 14.9281 11.3915 14.8124C10.8095 14.6966 10.275 14.4109 9.85543 13.9913C9.43587 13.5718 9.15015 13.0372 9.03439 12.4553C8.91864 11.8733 8.97805 11.2701 9.20511 10.7219C9.43217 10.1738 9.81669 9.70523 10.31 9.37559ZM13.0879 10.2071C12.759 9.98729 12.3723 9.87 11.9767 9.87C11.4463 9.87 10.9376 10.0807 10.5625 10.4558C10.1875 10.8309 9.97675 11.3396 9.97675 11.87C9.97675 12.2656 10.094 12.6522 10.3138 12.9811C10.5336 13.31 10.8459 13.5664 11.2114 13.7178C11.5768 13.8691 11.979 13.9087 12.3669 13.8316C12.7549 13.7544 13.1113 13.5639 13.391 13.2842C13.6707 13.0045 13.8611 12.6481 13.9383 12.2602C14.0155 11.8722 13.9759 11.4701 13.8245 11.1046C13.6731 10.7392 13.4168 10.4268 13.0879 10.2071Z" fill="#242629"/>
<path d="M7.30282 9.38197C7.50056 9.57473 7.50458 9.89129 7.31182 10.089C6.84211 10.5708 6.57922 11.2171 6.57922 11.89C6.57922 12.5629 6.84211 13.2091 7.31182 13.691C7.50458 13.8887 7.50056 14.2053 7.30282 14.398C7.10509 14.5908 6.78854 14.5867 6.59577 14.389C5.944 13.7204 5.57922 12.8237 5.57922 11.89C5.57922 10.9563 5.944 10.0595 6.59577 9.39097C6.78854 9.19323 7.10509 9.18921 7.30282 9.38197Z" fill="#242629"/>
</svg>
