<svg width="200" height="200" viewBox="0 0 200 200" fill="none" xmlns="http://www.w3.org/2000/svg">
<circle cx="100" cy="100" r="99.75" fill="#E4E6EE"/>
<path d="M60.2472 40.4282H137.897C145.311 40.4282 151.322 46.4388 151.322 53.8541V157.09C151.322 164.504 145.311 170.516 137.897 170.516H60.2472C52.8327 170.516 46.8213 164.504 46.8213 157.09V53.8541C46.8213 46.4388 52.8327 40.4282 60.2472 40.4282Z" fill="white"/>
<path d="M60.1615 57.2142H93.894C96.1646 57.2142 98.0056 59.0552 98.0056 61.3258C98.0056 63.5965 96.1646 65.4375 93.894 65.4375H60.1615C57.8908 65.4375 56.0498 63.5965 56.0498 61.3258C56.0498 59.0552 57.8908 57.2142 60.1615 57.2142Z" fill="#4C5160"/>
<path d="M60.1615 80.5384H135.85C138.121 80.5384 139.961 82.3794 139.961 84.65C139.961 86.9207 138.121 88.7617 135.85 88.7617H60.1615C57.8908 88.7617 56.0498 86.9207 56.0498 84.65C56.0498 82.3794 57.8908 80.5384 60.1615 80.5384Z" fill="#E4E6EE"/>
<path d="M60.1615 103.866H135.85C138.121 103.866 139.961 105.708 139.961 107.978C139.961 110.249 138.121 112.09 135.85 112.09H60.1615C57.8908 112.09 56.0498 110.249 56.0498 107.978C56.0498 105.708 57.8908 103.866 60.1615 103.866Z" fill="#E4E6EE"/>
<path d="M60.1615 127.191H135.85C138.121 127.191 139.961 129.032 139.961 131.302C139.961 133.573 138.121 135.414 135.85 135.414H60.1615C57.8908 135.414 56.0498 133.573 56.0498 131.302C56.0498 129.032 57.8908 127.191 60.1615 127.191Z" fill="#E4E6EE"/>
<path d="M60.1615 150.523H135.85C138.121 150.523 139.961 152.364 139.961 154.634C139.961 156.905 138.121 158.746 135.85 158.746H60.1615C57.8908 158.746 56.0498 156.905 56.0498 154.634C56.0498 152.364 57.8908 150.523 60.1615 150.523Z" fill="#E4E6EE"/>
<path d="M158.443 35.1754H108.028C105.679 35.1754 103.774 37.18 103.774 39.652V64.5897C103.774 67.0617 105.679 69.0664 108.028 69.0664H158.443C160.792 69.0664 162.696 67.0617 162.696 64.5897V39.652C162.696 37.18 160.792 35.1754 158.443 35.1754Z" fill="white"/>
<path d="M116.361 57.4727C119.142 57.4727 121.396 55.2188 121.396 52.438C121.396 49.6571 119.142 47.4033 116.361 47.4033C113.58 47.4033 111.326 49.6571 111.326 52.438C111.326 55.2188 113.58 57.4727 116.361 57.4727Z" fill="#455E9B"/>
<path d="M133.147 47.4033H149.929C152.709 47.4033 154.964 49.658 154.964 52.438C154.964 55.2179 152.709 57.4727 149.929 57.4727H133.147C130.367 57.4727 128.112 55.2179 128.112 52.438C128.112 49.658 130.367 47.4033 133.147 47.4033Z" fill="#E4E6EE"/>
</svg>
