<svg width="24" height="24" viewBox="0 0 24 24" fill="none" xmlns="http://www.w3.org/2000/svg">
<path d="M20.9947 6.90212C20.9786 6.73379 20.9199 6.57232 20.8242 6.43289C20.7285 6.29347 20.599 6.18068 20.4477 6.10512L12.4747 2.10512C12.336 2.03506 12.1828 1.9984 12.0274 1.99805C11.872 1.9977 11.7187 2.03368 11.5797 2.10312L3.55267 6.10312C3.25567 6.25312 3.05067 6.54012 3.00867 6.87012C2.99567 6.96712 1.86367 16.6111 11.5497 21.8781C11.6986 21.9593 11.8657 22.0011 12.0353 21.9996C12.2049 21.998 12.3713 21.9531 12.5187 21.8691C21.8257 16.6101 21.0327 7.29612 20.9947 6.90212ZM12.0177 19.8461C5.15767 15.8361 4.87767 9.49412 4.95467 7.64112L12.0257 4.11812L19.0237 7.62912C19.0287 9.49912 18.5427 15.8721 12.0177 19.8461Z" fill="currentColor"/>
</svg>
